# xmcd
#
# Track frame offsets:
#	150
#	17637
#	36030
#	50900
#	65062
#	78810
#	97482
#	114465
#	131515
#	143193
#	157716
#	170200
#
# Disc length: 2389 seconds
#
# Revision: 0
# Processed by: cddbd v1.5.2PL0 Copyright (c) Steve Scherf et al.
# Submitted via: audiograbber 1.83.01
#
DISCID=a609530c
DTITLE=Ed Burleson - My Perfect World
DYEAR=2007
DGENRE=Country
TTITLE0=Wide Open Spaces
TTITLE1=My Perfect World
TTITLE2=Clinging To You
TTITLE3=Dreamworld
TTITLE4=No Closing Time
TTITLE5=It All Started And Ended With You
TTITLE6=Staring Out The Window
TTITLE7=No Tears
TTITLE8=Might Seem Like A Loser
TTITLE9=Going Home To Texas
TTITLE10=No One Has To Tell You
TTITLE11=Big Town, Small World Blues
EXTD=
EXTT0=
EXTT1=
EXTT2=
EXTT3=
EXTT4=
EXTT5=
EXTT6=
EXTT7=
EXTT8=
EXTT9=
EXTT10=
EXTT11=
PLAYORDER=
